<svg width="16" height="16" viewBox="0 0 16 16" fill="none" xmlns="http://www.w3.org/2000/svg">
<path d="M2.48305 8.97804H10.909C11.3106 8.97804 11.6363 8.54016 11.6363 8.00005C11.6363 7.45994 11.3106 7.02206 10.909 7.02206H2.48305L3.42337 5.75766C3.70739 5.37578 3.70739 4.75652 3.42337 4.37459C3.13944 3.99265 2.67893 3.99265 2.39486 4.37459L0.213188 7.30835C0.196315 7.33098 0.180412 7.35464 0.165285 7.37942C0.1616 7.38548 0.158448 7.392 0.154861 7.3982C0.143758 7.41717 0.132848 7.43621 0.122861 7.45629C0.119951 7.46216 0.117576 7.46835 0.114715 7.47429C0.104727 7.49528 0.0949333 7.51647 0.0861091 7.53857C0.0844121 7.54294 0.083006 7.54757 0.0813091 7.55194C0.0721454 7.57587 0.0633212 7.60012 0.0556121 7.62516C0.0546424 7.62822 0.0539636 7.63148 0.0530424 7.63461C0.0451394 7.66095 0.0378182 7.68762 0.0316121 7.71507C0.0307879 7.71852 0.0303515 7.72211 0.0296242 7.72563C0.0237576 7.75255 0.0183758 7.77974 0.0142545 7.80758C0.0130424 7.81586 0.0125091 7.8244 0.0113939 7.83275C0.00838788 7.85583 0.00538182 7.87891 0.00368485 7.90245C0.00121212 7.93472 0 7.96732 0 8.00005C0 8.03278 0.00121212 8.06538 0.00368485 8.09772C0.00538182 8.12158 0.00848485 8.14486 0.0114424 8.16813C0.0125091 8.17622 0.0130424 8.1845 0.0142545 8.19252C0.0184242 8.22062 0.0237576 8.24807 0.0296727 8.27526C0.0304 8.27845 0.0308364 8.28184 0.0315636 8.28504C0.0378182 8.31262 0.0451394 8.33954 0.0531394 8.36614C0.0540121 8.36901 0.0546424 8.37208 0.0555636 8.37495C0.0633212 8.40018 0.0721939 8.42456 0.0814545 8.44862C0.0830545 8.45286 0.0844121 8.45729 0.0860606 8.46153C0.0949818 8.48376 0.104824 8.50515 0.114958 8.52634C0.117673 8.53208 0.12 8.53814 0.122812 8.54375C0.132848 8.56389 0.143855 8.58306 0.154909 8.6021C0.158448 8.60823 0.1616 8.61468 0.165236 8.62068C0.180412 8.64539 0.196315 8.66912 0.213139 8.69175L2.39481 11.6255C2.53682 11.8165 2.72296 11.912 2.90909 11.912C3.09522 11.912 3.28136 11.8165 3.42332 11.6255C3.70735 11.2436 3.70735 10.6244 3.42332 10.2424L2.48305 8.97804Z" fill="#EDEDED"/>
<path d="M10.0509 0C8.06573 0 6.21875 1.32433 5.11014 3.54247C4.88614 3.99071 4.97477 4.59837 5.30811 4.89965C5.64149 5.20087 6.09332 5.08182 6.31742 4.63344C7.15528 2.95685 8.55097 1.95591 10.0509 1.95591C12.5292 1.95597 14.5455 4.66728 14.5455 8C14.5455 11.3327 12.5292 14.044 10.0509 14.044C8.55538 14.044 7.16197 13.0476 6.32348 11.3786C6.09856 10.931 5.64658 10.8134 5.31368 11.1157C4.98088 11.4181 4.89332 12.026 5.11819 12.4736C6.22757 14.6817 8.07155 16 10.0509 16C13.3312 16 16 12.4112 16 8C16 3.58876 13.3312 0 10.0509 0Z" fill="#EDEDED"/>
</svg>
